<?xml version="1.0" encoding="UTF-8"?><svg id="Layer_2" xmlns="http://www.w3.org/2000/svg" xmlns:xlink="http://www.w3.org/1999/xlink" viewBox="0 0 755.13 755.13"><defs><style>.cls-1{fill:url(#linear-gradient);}</style><linearGradient id="linear-gradient" x1="0" y1="377.57" x2="755.13" y2="377.57" gradientTransform="matrix(1, 0, 0, 1, 0, 0)" gradientUnits="userSpaceOnUse"><stop offset="0" stop-color="#cce0f4" stop-opacity="0"/><stop offset=".37" stop-color="#cce0f4" stop-opacity="0"/><stop offset=".5" stop-color="#cde1f4" stop-opacity=".03"/><stop offset=".6" stop-color="#d0e2f4" stop-opacity=".08"/><stop offset=".68" stop-color="#d3e4f5" stop-opacity=".15"/><stop offset=".74" stop-color="#d7e7f6" stop-opacity=".23"/><stop offset=".8" stop-color="#ddeaf7" stop-opacity=".34"/><stop offset=".85" stop-color="#e3eef9" stop-opacity=".47"/><stop offset=".9" stop-color="#ebf3fa" stop-opacity=".61"/><stop offset=".95" stop-color="#f3f8fc" stop-opacity=".78"/><stop offset=".99" stop-color="#fdfdfe" stop-opacity=".96"/><stop offset=".99" stop-color="#fff"/></linearGradient></defs><g id="Layer_1-2"><path class="cls-1" d="M377.57,7c50.03,0,98.56,9.8,144.24,29.12,44.13,18.66,83.76,45.38,117.79,79.42,34.03,34.03,60.75,73.67,79.42,117.79,19.32,45.68,29.12,94.21,29.12,144.24s-9.8,98.56-29.12,144.24c-18.66,44.13-45.38,83.76-79.42,117.79-34.03,34.03-73.66,60.75-117.79,79.42-45.68,19.32-94.21,29.12-144.24,29.12s-98.56-9.8-144.24-29.12c-44.13-18.66-83.76-45.38-117.79-79.42s-60.75-73.66-79.42-117.79c-19.32-45.68-29.12-94.21-29.12-144.24s9.8-98.56,29.12-144.24c18.66-44.13,45.38-83.76,79.42-117.79,34.03-34.03,73.66-60.75,117.79-79.42,45.68-19.32,94.21-29.12,144.24-29.12m0-7C169.04,0,0,169.04,0,377.57s169.04,377.57,377.57,377.57,377.57-169.04,377.57-377.57S586.09,0,377.57,0h0Z"/></g></svg>