<?xml version="1.0" encoding="utf-8"?>
<!-- Generator: Adobe Illustrator 26.3.1, SVG Export Plug-In . SVG Version: 6.00 Build 0)  -->
<svg version="1.1" id="layer" xmlns="http://www.w3.org/2000/svg" xmlns:xlink="http://www.w3.org/1999/xlink" x="0px" y="0px"
	 viewBox="0 0 599.9 138.2" style="enable-background:new 0 0 599.9 138.2;" xml:space="preserve">
<style type="text/css">
	.st0{fill:#FA3C7A;}
</style>
<g>
	<path class="st0" d="M56.3,53.2H31.8V29.6H18v23.6H0v11.7h18.1v45.5c0,17.2,3.2,27.8,22.8,27.8c5.1,0,11.3-0.9,16.1-3l-0.5-12.6
		c-3.7,1.9-8.1,2.8-12.2,2.8c-12.2,0-12.4-8.5-12.4-19.1V64.9h24.4V53.2L56.3,53.2z"/>
	<path class="st0" d="M126.2,112.9c-6.6,8.3-14.5,12.6-26.4,12.6c-15.1,0-26-12.2-27.1-26.6h66.9v-4.4c0-27.4-15.9-43.4-39.3-43.4
		c-24.4,0-42.5,17.9-42.5,43.6c0,24.1,15.9,43.6,42,43.6c15.4,0,27.1-4.6,36.8-17.2L126.2,112.9z M72.7,87.2
		c1.8-14,11.9-23.4,27.1-23.4s24.4,9.4,25,23.4H72.7z"/>
	<path class="st0" d="M151.7,136h13.8V2.2h-13.8V136z"/>
	<path class="st0" d="M245.8,112.9c-6.6,8.3-14.5,12.6-26.4,12.6c-15.1,0-26-12.2-27.1-26.6h66.9v-4.4c0-27.4-15.9-43.4-39.3-43.4
		c-24.4,0-42.5,17.9-42.5,43.6c0,24.1,15.9,43.6,42,43.6c15.4,0,27.1-4.6,36.8-17.2L245.8,112.9z M192.4,87.2
		c1.8-14,11.9-23.4,27.1-23.4c15.2,0,24.4,9.4,25,23.4H192.4z"/>
	<path class="st0" d="M278.9,136h13.8V64.8h20.2V53.1h-20.2V37.5c0-14.3,0.5-24.8,14.9-24.8c3.2,0,6.4,0.7,9.4,1.8l1.9-12.4
		c-2.7-1.4-7.1-2.1-10.6-2.1c-22.3,0-29.4,14.3-29.4,34.5v18.6h-18.1v11.7h18.1L278.9,136L278.9,136z"/>
	<path class="st0" d="M323.6,136h13.8V2.2h-13.8V136z"/>
	<path class="st0" d="M347.6,94.6c0,25.9,18.8,43.6,44.3,43.6s44.3-17.7,44.3-43.6S417.4,51,391.9,51
		C366.4,51.1,347.6,68.8,347.6,94.6z M362.5,94.6c0-17.4,11.5-30.8,29.4-30.8s29.4,13.5,29.4,30.8s-11.5,30.8-29.4,30.8
		S362.5,112,362.5,94.6z"/>
	<path class="st0" d="M445.2,136H459V95.6c0-18.9,7.4-30.8,24.3-30.8c2.5,0,5.1,0.4,7.4,1.1l0.9-14c-1.9-0.7-3.9-0.9-5.7-0.9
		c-13.6,0-23.9,7.6-27.6,15.8h-0.4c0-4.6-0.4-9.2-0.4-13.6h-13c0,5.5,0.7,12,0.7,19.7V136L445.2,136z"/>
	<path class="st0" d="M506.3,72.8c6.6-6,15.8-9,24.6-9c12.9,0,20.5,6.2,20.5,18.2v2.5h-5.3c-20.4,0-52.2,1.6-52.2,29
		c0,16.1,14,24.6,30.8,24.6c12.6,0,21.8-6,27.3-14.5h0.4c0,3.5,0,8.7,0.9,12.4h13.2c-0.7-4.2-1.2-9.6-1.2-14.3V86.1
		c0-23.4-10.3-35.1-34.7-35.1c-12,0-24.4,4.1-32.9,12.8L506.3,72.8z M551.4,96.2v5.3c-0.4,13.5-8.5,25-24.4,25
		c-10.4,0-18.2-3.9-18.2-14.3c0-11.2,11.3-15.9,28.9-15.9h13.7V96.2z"/>
	<path class="st0" d="M588.9,136.9c5.9,0,11-4.6,11-10.9s-5.1-10.9-11-10.9c-6,0-11.1,4.6-11.1,10.9
		C577.9,132.3,582.9,136.9,588.9,136.9z M580,126c0-5.2,3.9-9.1,8.9-9.1c4.9,0,8.8,3.9,8.8,9.1c0,5.3-3.9,9.1-8.8,9.1
		C583.9,135.1,580,131.3,580,126z M586.6,126.9h2.2l3.3,5.5h2.1l-3.6-5.5c1.8-0.2,3.3-1.2,3.3-3.5c0-2.5-1.5-3.6-4.4-3.6h-4.8v12.6
		h1.9V126.9L586.6,126.9z M586.6,125.3v-3.9h2.6c1.3,0,2.7,0.3,2.7,1.8c0,1.9-1.4,2-3.1,2L586.6,125.3L586.6,125.3z"/>
</g>
</svg>
