<?xml version="1.0" encoding="UTF-8"?><svg id="Layer_1" xmlns="http://www.w3.org/2000/svg" viewBox="0 0 423.88 981.37"><defs><style>.cls-1{fill:none;}.cls-1,.cls-2{stroke:#000;stroke-miterlimit:10;stroke-width:20px;}</style></defs><path class="cls-2" d="M218.83,112.8c-1.86-.12-3.74-.17-5.63-.17-2.71,0-5.4,.11-8.06,.33l6.97-6.88,6.72,6.72Z"/><path class="cls-2" d="M310.56,216.28c.13-2.02,.19-4.05,.19-6.1,0-2.87-.12-5.71-.37-8.51l7.44,7.44-7.26,7.17Z"/><path class="cls-1" d="M356.92,352.57c-14.41,14.41-33.29,21.62-52.18,21.62s-37.77-7.21-52.18-21.62l-38.02-38.02,7.17-7.18c47.89-4.14,85.88-42.88,88.85-91.09l7.26-7.17,39.1,39.1c28.82,28.82,28.82,75.54,0,104.36Z"/><path class="cls-1" d="M370.2,141.14c25.68,11.48,43.61,37.23,43.68,67.19,.05,20.38-8.15,38.85-21.47,52.24-5.44,5.47-11.73,10.09-18.66,13.65"/><path class="cls-1" d="M286.49,274.56h0v-2.25c16.58-19.83,24.05-44.69,22.42-69.05"/><path class="cls-1" d="M351.8,66.23c14.48,14.34,21.79,33.18,21.89,52.07s-7.02,37.81-21.35,52.29l-37.82,38.21-7.22-7.13c-4.39-47.87-43.32-85.66-91.54-88.38l-7.21-7.22,38.9-39.3c28.67-28.97,75.39-29.21,104.36-.54Z"/><path class="cls-1" d="M140.31,54.03c11.35-25.74,37.01-43.79,66.97-44.03,20.38-.15,38.89,7.96,52.35,21.21,5.49,5.41,10.14,11.68,13.73,18.59"/><path class="cls-1" d="M202.74,115.01c24.35-1.76,49.25,5.58,69.16,22.07l2.26-.02"/><path class="cls-1" d="M65.49,72.81c14.26-14.56,33.07-21.96,51.96-22.15,18.89-.19,37.84,6.82,52.4,21.08l38.41,37.63-7.1,7.25c-47.84,4.63-85.44,43.76-87.91,92l-7.19,7.24-39.5-38.7c-29.11-28.52-29.59-75.24-1.07-104.35Z"/><path class="cls-1" d="M54.38,284.37c-25.8-11.23-43.98-36.79-44.37-66.75-.26-20.38,7.75-38.93,20.94-52.46,5.38-5.52,11.62-10.2,18.51-13.82h.01"/><path class="cls-1" d="M136.72,150.1l.03,2.24c-12.71,15.52-19.9,34-21.61,52.88-.37,4.08-.48,8.17-.34,12.26,.05,1.39,.12,2.77,.24,4.15"/><path class="cls-1" d="M73.54,359.09c-14.63-14.19-22.13-32.95-22.42-51.84-.29-18.89,6.63-37.88,20.81-52.51l37.43-38.6,7.29,7.06c4.88,47.82,44.2,85.21,92.45,87.44l7.28,7.15-38.49,39.7c-28.37,29.26-75.09,29.98-104.35,1.61Z"/><path class="cls-1" d="M284.18,371.28c-11.56,24.71-36.42,42.02-65.54,42.54-8.02,.15-15.77-.99-23.04-3.23-11.2-3.44-21.28-9.48-29.53-17.44-5.55-5.36-10.26-11.57-13.92-18.44"/><path class="cls-1" d="M150.45,287.46l2.26-.04c19.55,15.85,43.74,22.99,67.45,21.5"/><path class="cls-2" d="M310.56,216.28c.13-2.02,.19-4.05,.19-6.1,0-2.87-.12-5.71-.37-8.51l7.44,7.44-7.26,7.17Z"/><path class="cls-2" d="M116.01,218.69l-7.17-7.17,6.97-6.97c-.12,1.86-.17,3.74-.17,5.63,0,2.87,.12,5.71,.37,8.51Z"/><path class="cls-2" d="M116.01,218.69l-7.17-7.17,6.97-6.97c-.12,1.86-.17,3.74-.17,5.63,0,2.87,.12,5.71,.37,8.51Z"/><path class="cls-2" d="M218.83,112.8c-1.86-.12-3.74-.17-5.63-.17-2.71,0-5.4,.11-8.06,.33l6.97-6.88,6.72,6.72Z"/><path class="cls-1" d="M27.49,431.86s93.83,91.87,33.23,205.25C.13,750.49-3.78,969.42,213.19,971.37c216.98-1.95,213.07-220.89,152.47-334.26s33.23-205.25,33.23-205.25"/><line class="cls-1" x1="31.24" y1="721.14" x2="395.15" y2="721.14"/><path class="cls-1" d="M214.54,721.13c-58.05-22.84-38.29-197.7-18.94-310.54"/><path class="cls-1" d="M213.04,321.23c.56-2.56,.98-4.42,1.23-5.52,.18-.77,.27-1.16,.27-1.16"/></svg>